{
	"asset":{
		"generator":"Khronos glTF Blender I/O v3.5.30",
		"version":"2.0"
	},
	"scene":0,
	"scenes":[
		{
			"name":"Scene",
			"nodes":[
				0
			]
		}
	],
	"nodes":[
		{
			"mesh":0,
			"name":"Cube",
			"scale":[
				0.44999998807907104,
				4.4840617179870605,
				0.44999998807907104
			]
		}
	],
	"materials":[
		{
			"doubleSided":true,
			"name":"Material",
			"pbrMetallicRoughness":{
				"baseColorFactor":[
					0.800000011920929,
					0.800000011920929,
					0.800000011920929,
					1
				],
				"metallicFactor":0,
				"roughnessFactor":0.5
			}
		}
	],
	"meshes":[
		{
			"name":"Cube",
			"primitives":[
				{
					"attributes":{
						"POSITION":0,
						"TEXCOORD_0":1,
						"NORMAL":2,
						"TANGENT":3
					},
					"indices":4,
					"material":0
				}
			]
		}
	],
	"accessors":[
		{
			"bufferView":0,
			"componentType":5126,
			"count":2400,
			"max":[
				1,
				1,
				1
			],
			"min":[
				-1,
				-1,
				-1
			],
			"type":"VEC3"
		},
		{
			"bufferView":1,
			"componentType":5126,
			"count":2400,
			"type":"VEC2"
		},
		{
			"bufferView":2,
			"componentType":5126,
			"count":2400,
			"type":"VEC3"
		},
		{
			"bufferView":3,
			"componentType":5126,
			"count":2400,
			"type":"VEC4"
		},
		{
			"bufferView":4,
			"componentType":5123,
			"count":3588,
			"type":"SCALAR"
		}
	],
	"bufferViews":[
		{
			"buffer":0,
			"byteLength":28800,
			"byteOffset":0,
			"target":34962
		},
		{
			"buffer":0,
			"byteLength":19200,
			"byteOffset":28800,
			"target":34962
		},
		{
			"buffer":0,
			"byteLength":28800,
			"byteOffset":48000,
			"target":34962
		},
		{
			"buffer":0,
			"byteLength":38400,
			"byteOffset":76800,
			"target":34962
		},
		{
			"buffer":0,
			"byteLength":7176,
			"byteOffset":115200,
			"target":34963
		}
	],
	"buffers":[
		{
			"byteLength":122376,
			"uri":"data:application/octet-stream;base64,"
		}
	]
}
